<svg width="150" height="31" fill="none" xmlns="http://www.w3.org/2000/svg"><path d="M4.74956 24.3606H0V1.0252h4.74956v9.3407h9.48254V1.0252h4.7496v23.3354h-4.7496v-9.3244H4.74956v9.3244zM29.7054 20.0971c.1766.0543.3531.0922.5296.1139.1765.0109.353.0163.5296.0163.4413 0 .866-.0597 1.2742-.179.4082-.1193.7889-.2875 1.1419-.5045.3641-.2278.684-.499.9599-.8136.2868-.3255.5185-.6835.695-1.074l3.3098 3.2708c-.4192.5859-.9047 1.112-1.4563 1.5785-.5406.4665-1.1308.8625-1.7707 1.1879-.6289.3255-1.2964.5696-2.0025.7323-.695.1736-1.4121.2604-2.1513.2604-1.2467 0-2.4217-.2278-3.525-.6835-1.0922-.4556-2.052-1.0903-2.8795-1.9039-.8164-.8137-1.4618-1.7792-1.9362-2.8966-.4744-1.1283-.7116-2.365-.7116-3.7102 0-1.3778.2372-2.6363.7116-3.7754.4744-1.1391 1.1198-2.11003 1.9362-2.91283.8275-.8028 1.7873-1.42659 2.8795-1.87139 1.1033-.44479 2.2783-.66719 3.525-.66719.7392 0 1.4618.08679 2.1679.26037.7061.17358 1.3735.4231 2.0024.74856.6399.32545 1.2357.72685 1.7873 1.20419.5516.4665 1.0371.99266 1.4563 1.57849l-8.4731 10.0404zm2.3169-9.1617c-.2096-.0759-.4193-.1247-.6289-.1464-.1986-.0217-.4082-.0326-.6288-.0326-.6179 0-1.2026.1139-1.7542.3418-.5406.2169-1.015.5315-1.4232.9438-.3972.4122-.7116.9113-.9433 1.4971-.2317.575-.3476 1.2259-.3476 1.9528 0 .1627.0056.3471.0166.5532.0221.2062.0496.4177.0827.6347.0442.2061.0938.4068.149.6021.0551.1953.1268.3688.2151.5207l5.2626-6.8672zM45.0132 24.3606h-4.5509V0h4.5509v24.3606zM53.0229 31H48.472V6.93228h1.0922L51.368 9.0315c.4083-.37971.8551-.73771 1.3405-1.07402.4855-.33631.9874-.6238 1.506-.86247.5295-.24952 1.0757-.44479 1.6383-.58582.5627-.14104 1.1309-.21155 1.7046-.21155 1.2467 0 2.4161.22239 3.5084.66719 1.1032.43394 2.0631 1.05232 2.8795 1.85512.8274.8028 1.4784 1.77375 1.9528 2.91285.4744 1.1283.7116 2.3813.7116 3.7591 0 1.432-.2372 2.723-.7116 3.8729-.4744 1.1391-1.1254 2.1101-1.9528 2.9129-.8164.7919-1.7763 1.3995-2.8795 1.8226-1.0923.4231-2.2617.6346-3.5084.6346-.3972 0-.7944-.0434-1.1916-.1302-.3861-.0868-.7722-.2007-1.1584-.3417-.3751-.1519-.7502-.32-1.1253-.5045-.3641-.1844-.7171-.3742-1.0592-.5695V31zm9.0523-15.5081c0-.7377-.1213-1.3995-.364-1.9853-.2317-.5859-.5517-1.0795-.9599-1.4809-.4082-.4122-.8881-.7268-1.4397-.9438-.5517-.217-1.1364-.3255-1.7542-.3255-.6179 0-1.2026.1085-1.7542.3255-.5406.217-1.015.5316-1.4232.9438-.4082.4014-.7337.895-.9764 1.4809-.2317.5858-.3476 1.2476-.3476 1.9853 0 .7051.1159 1.3506.3476 1.9364.2427.5859.5682 1.0849.9764 1.4972.4082.4122.8826.7322 1.4232.9601.5516.2278 1.1363.3417 1.7542.3417.6178 0 1.2025-.1139 1.7542-.3417.5516-.2279 1.0315-.5479 1.4397-.9601.4082-.4123.7282-.9113.9599-1.4972.2427-.5858.364-1.2313.364-1.9364zM86.2202 24.3606H69.605V1.0252h4.7496v18.6651h11.8656v4.6703zM104.887 15.4919c0 1.3018-.237 2.5168-.711 3.6451-.475 1.1174-1.12 2.0884-1.936 2.9129-.817.8136-1.777 1.4591-2.8799 1.9365-1.0922.4664-2.2672.6997-3.5249.6997-1.2467 0-2.4217-.2333-3.525-.6997-1.0922-.4774-2.052-1.1229-2.8795-1.9365-.8164-.8245-1.4618-1.7955-1.9362-2.9129-.4744-1.1283-.7116-2.3433-.7116-3.6451 0-1.3236.2372-2.5495.7116-3.6777.4744-1.1283 1.1198-2.09924 1.9362-2.91289.8275-.82449 1.7873-1.46999 2.8795-1.93648 1.1033-.46649 2.2783-.69974 3.525-.69974 1.2577 0 2.4327.2224 3.5249.66719 1.1029.43395 2.0629 1.05775 2.8799 1.87139.816.8028 1.461 1.77373 1.936 2.91283.474 1.1283.711 2.3867.711 3.7754zm-4.551 0c0-.716-.121-1.3615-.3636-1.9365-.2317-.5858-.5516-1.0849-.9598-1.4971-.4082-.4231-.8882-.7432-1.4398-.9601-.5406-.2279-1.1198-.3418-1.7376-.3418-.6179 0-1.2026.1139-1.7542.3418-.5406.2169-1.015.537-1.4232.9601-.3972.4122-.7116.9113-.9433 1.4971-.2317.575-.3476 1.2205-.3476 1.9365 0 .6726.1159 1.2964.3476 1.8714.2317.5749.5461 1.074.9433 1.4971.4082.4231.8826.7594 1.4232 1.0089.5516.2387 1.1363.358 1.7542.358.6178 0 1.197-.1139 1.7376-.3417.5516-.2279 1.0316-.5479 1.4398-.9601.4082-.4123.7281-.9113.9598-1.4972.2426-.5858.3636-1.2313.3636-1.9364zM122.876 10.3984l-3.31 3.2709c-.165-.4557-.391-.8625-.678-1.2205-.287-.3688-.612-.678-.976-.9275-.354-.2496-.74-.4394-1.159-.5696-.419-.1302-.849-.1953-1.291-.1953-.618 0-1.202.1248-1.754.3743-.541.2495-1.015.6021-1.423 1.0578-.397.4447-.712.9763-.943 1.5947-.232.6184-.348 1.3018-.348 2.0504 0 .6075.116 1.1771.348 1.7087.231.5315.546.998.943 1.3994.408.4014.882.716 1.423.9439.552.2278 1.136.3417 1.754.3417.442 0 .866-.0597 1.275-.179.408-.1193.788-.2875 1.141-.5045.364-.2278.684-.499.96-.8136.287-.3255.519-.6835.695-1.074l3.31 3.2708c-.419.5859-.905 1.112-1.456 1.5785-.541.4665-1.131.8625-1.771 1.1879-.629.3255-1.296.5696-2.002.7323-.695.1736-1.413.2604-2.152.2604-1.246 0-2.421-.2278-3.525-.6835-1.092-.4665-2.052-1.1011-2.879-1.9039-.817-.8028-1.462-1.7412-1.936-2.8152-.475-1.0741-.712-2.224-.712-3.4499 0-1.3344.237-2.582.712-3.7428.474-1.1608 1.119-2.16972 1.936-3.02676.827-.86789 1.787-1.55135 2.879-2.05039 1.104-.49904 2.279-.74856 3.525-.74856.739 0 1.462.09222 2.168.27664.717.18443 1.396.45565 2.036.81365.651.34716 1.246.77568 1.787 1.28556.552.50989 1.026 1.09572 1.423 1.75746zM141.99 24.3606h-1.092l-1.754-2.3921c-.43.3797-.888.7377-1.374 1.074-.474.3255-.976.613-1.506.8625-.529.2387-1.075.4285-1.638.5695-.552.1411-1.114.2116-1.688.2116-1.247 0-2.422-.2061-3.525-.6184-1.092-.4122-2.052-1.0089-2.879-1.79-.817-.792-1.462-1.7575-1.937-2.8966-.474-1.1391-.711-2.4355-.711-3.8892 0-1.3561.237-2.5983.711-3.7265.475-1.1392 1.12-2.11553 1.937-2.92918.827-.81365 1.787-1.44287 2.879-1.88766 1.103-.45565 2.278-.68347 3.525-.68347.574 0 1.142.07052 1.705.21155.562.14103 1.108.33631 1.638.58583.529.24952 1.031.54243 1.506.87874.485.3363.938.69973 1.357 1.09029l1.754-2.06667h1.092V24.3606zm-4.551-8.8687c0-.6076-.121-1.1934-.364-1.7575-.231-.575-.551-1.0795-.96-1.5134-.408-.4448-.888-.7974-1.439-1.0577-.541-.2713-1.12-.4069-1.738-.4069-.618 0-1.203.1031-1.754.3092-.541.2061-1.015.5099-1.423.9113-.398.4014-.712.9004-.944 1.4971-.231.5858-.347 1.2585-.347 2.0179 0 .7594.116 1.4374.347 2.0341.232.5858.546 1.0794.944 1.4808.408.4014.882.7052 1.423.9113.551.2061 1.136.3092 1.754.3092.618 0 1.197-.1302 1.738-.3906.551-.2712 1.031-.6238 1.439-1.0577.409-.4448.729-.9493.96-1.5134.243-.575.364-1.1662.364-1.7737zM150 24.3606h-4.551V0H150v24.3606z" fill="#fff"/></svg>