<svg width="512" height="512" viewBox="0 0 512 512" fill="none" xmlns="http://www.w3.org/2000/svg">
<circle cx="256" cy="256" r="256" fill="#00B4BF"/>
<path d="M112.089 429.315C105.495 429.315 97 420.802 97 406.572C97 350.285 298.73 78 358.323 78C376.328 78 393.318 88.4188 393.318 111.67C393.318 152.837 381.526 232.884 366.818 304.798C385.203 306.704 400.799 310.516 411.196 316.615C413.986 318.013 415 322.333 415 327.034C415 335.547 411.196 345.076 404.603 345.076C402.194 345.076 399.911 343.678 391.797 341.264C384.189 338.85 373.411 336.944 360.098 335.547C352.49 370.615 344.502 401.871 337.402 421.692C334.612 429.696 326.117 433 314.706 433C293.024 433 260.818 421.184 240.531 409.748C209.847 393.231 172.443 370.487 172.443 351.556C172.443 325.001 249.914 305.18 318.89 302.766C331.696 239.745 341.586 171.642 344.883 125.266C250.041 215.731 169.78 312.803 118.301 425.122C116.907 427.918 114.498 429.315 112.089 429.315ZM312.931 333.259C276.541 333.768 236.347 339.358 207.565 354.986C216.567 368.709 267.538 394.247 294.545 403.268C300.632 383.447 306.844 359.306 312.931 333.259Z" fill="#FEFEFE"/>
</svg>
