<svg width="512" height="512" viewBox="0 0 512 512" fill="none" xmlns="http://www.w3.org/2000/svg">
<g clip-path="url(#clip0)">
<mask id="mask0" mask-type="alpha" maskUnits="userSpaceOnUse" x="0" y="0" width="512" height="512">
<rect width="512" height="512" rx="77" fill="#02161E"/>
</mask>
<g mask="url(#mask0)">
<rect x="685.242" y="-167" width="148.746" height="1048.19" transform="rotate(75 685.242 -167)" fill="#E84A5F"/>
<rect x="723.738" y="-23.3238" width="148.746" height="1048.19" transform="rotate(75 723.738 -23.3238)" fill="#FFDE67"/>
<rect x="762.236" y="120.354" width="148.746" height="1048.19" transform="rotate(75 762.236 120.354)" fill="#00D98B"/>
<rect x="800.734" y="264.031" width="148.746" height="1048.19" transform="rotate(75 800.734 264.031)" fill="#00B4BF"/>
<path d="M81.315 467.526C73.3118 467.526 63 457.191 63 439.914C63 371.577 307.867 41 380.203 41C402.058 41 422.682 53.6492 422.682 81.8787C422.682 131.859 408.368 229.042 390.515 316.353C412.832 318.666 431.762 323.294 444.383 330.699C447.769 332.396 449 337.64 449 343.348C449 353.683 444.383 365.253 436.38 365.253C433.455 365.253 430.685 363.556 420.835 360.625C411.6 357.694 398.518 355.38 382.358 353.683C373.124 396.259 363.427 434.207 354.809 458.271C351.423 467.989 341.111 472 327.259 472C300.941 472 261.848 457.654 237.223 443.771C199.978 423.717 154.575 396.105 154.575 373.12C154.575 340.88 248.612 316.815 332.338 313.884C347.883 237.372 359.888 154.689 363.889 98.3844C248.766 208.217 151.343 326.071 88.8565 462.436C87.1635 465.83 84.2392 467.526 81.315 467.526ZM325.104 350.907C280.933 351.524 232.144 358.311 197.207 377.285C208.135 393.945 270.006 424.951 302.788 435.903C310.175 411.839 317.717 382.53 325.104 350.907Z" fill="#FEFEFE"/>
</g>
</g>
<defs>
<clipPath id="clip0">
<rect width="512" height="512" fill="white"/>
</clipPath>
</defs>
</svg>
